<svg width="40" height="40" viewBox="0 0 40 40" fill="none" xmlns="http://www.w3.org/2000/svg">
<g clip-path="url(#clip0_4492_2039)" filter="url(#filter0_d_4492_2039)">
<rect x="4" width="32" height="32" rx="16" fill="#EFF5FB"/>
<g clip-path="url(#clip1_4492_2039)">
<path d="M29.8217 20.5411C29.768 20.4479 29.4355 19.6996 27.8353 18.1615C26.1602 16.551 26.3852 16.8125 28.4029 14.0277C29.6317 12.3318 30.123 11.296 29.9692 10.8533C29.823 10.4312 28.9192 10.5426 28.9192 10.5426L25.9139 10.5607C25.9139 10.5607 25.6914 10.5296 25.5252 10.6319C25.3639 10.7329 25.2601 10.9659 25.2601 10.9659C25.2601 10.9659 24.7839 12.2787 24.1488 13.3947C22.81 15.7496 22.2737 15.8739 22.0549 15.7276C21.5461 15.3871 21.6736 14.3579 21.6736 13.6277C21.6736 11.3452 22.0074 10.3937 21.0223 10.1477C20.6948 10.0661 20.4548 10.0118 19.6185 10.0027C18.5459 9.99105 17.6371 10.0066 17.1233 10.2668C16.7808 10.4403 16.517 10.8274 16.6783 10.8494C16.877 10.8766 17.3271 10.975 17.5658 11.3116C17.8746 11.7453 17.8634 12.7214 17.8634 12.7214C17.8634 12.7214 18.0409 15.4078 17.4496 15.7418C17.0433 15.971 16.487 15.5036 15.2932 13.3662C14.6819 12.2722 14.2193 11.0617 14.2193 11.0617C14.2193 11.0617 14.1306 10.8364 13.9718 10.716C13.7793 10.5698 13.5093 10.5231 13.5093 10.5231L10.6516 10.5413C10.6516 10.5413 10.2228 10.5542 10.0653 10.7471C9.92527 10.9193 10.054 11.274 10.054 11.274C10.054 11.274 12.2917 16.6947 14.8244 19.4277C17.1483 21.9328 19.786 21.7684 19.786 21.7684H20.9811C20.9811 21.7684 21.3424 21.727 21.5261 21.5211C21.6961 21.3321 21.6899 20.9774 21.6899 20.9774C21.6899 20.9774 21.6661 19.3163 22.4112 19.0717C23.145 18.8309 24.0876 20.677 25.0864 21.3878C25.8414 21.925 26.4152 21.8072 26.4152 21.8072L29.0867 21.7684C29.0867 21.7684 30.4843 21.6791 29.8217 20.5411Z" fill="#333333"/>
</g>
</g>
</svg>
